<svg id="visual" viewBox="0 0 900 200" width="900" height="200" xmlns="http://www.w3.org/2000/svg" xmlns:xlink="http://www.w3.org/1999/xlink" version="1.1"><rect x="0" y="0" width="900" height="200" fill="#fff"></rect><path d="M0 88L8.3 85.2C16.7 82.3 33.3 76.7 50 75.3C66.7 74 83.3 77 100 77.7C116.7 78.3 133.3 76.7 150 74.8C166.7 73 183.3 71 200 72.3C216.7 73.7 233.3 78.3 250 81.2C266.7 84 283.3 85 300 83.5C316.7 82 333.3 78 350 75.5C366.7 73 383.3 72 400 72.2C416.7 72.3 433.3 73.7 450 76.2C466.7 78.7 483.3 82.3 500 82.8C516.7 83.3 533.3 80.7 550 78.5C566.7 76.3 583.3 74.7 600 76.7C616.7 78.7 633.3 84.3 650 86.5C666.7 88.7 683.3 87.3 700 84.8C716.7 82.3 733.3 78.7 750 77.5C766.7 76.3 783.3 77.7 800 79C816.7 80.3 833.3 81.7 850 82.8C866.7 84 883.3 85 891.7 85.5L900 86L900 0L891.7 0C883.3 0 866.7 0 850 0C833.3 0 816.7 0 800 0C783.3 0 766.7 0 750 0C733.3 0 716.7 0 700 0C683.3 0 666.7 0 650 0C633.3 0 616.7 0 600 0C583.3 0 566.7 0 550 0C533.3 0 516.7 0 500 0C483.3 0 466.7 0 450 0C433.3 0 416.7 0 400 0C383.3 0 366.7 0 350 0C333.3 0 316.7 0 300 0C283.3 0 266.7 0 250 0C233.3 0 216.7 0 200 0C183.3 0 166.7 0 150 0C133.3 0 116.7 0 100 0C83.3 0 66.7 0 50 0C33.3 0 16.7 0 8.3 0L0 0Z" fill="#cff6ff"></path><path d="M0 74L8.3 73.5C16.7 73 33.3 72 50 70.3C66.7 68.7 83.3 66.3 100 67.7C116.7 69 133.3 74 150 75.3C166.7 76.7 183.3 74.3 200 74C216.7 73.7 233.3 75.3 250 74.2C266.7 73 283.3 69 300 69.5C316.7 70 333.3 75 350 75C366.7 75 383.3 70 400 69.8C416.7 69.7 433.3 74.3 450 76.5C466.7 78.7 483.3 78.3 500 76.3C516.7 74.3 533.3 70.7 550 71.5C566.7 72.3 583.3 77.7 600 78C616.7 78.3 633.3 73.7 650 72.2C666.7 70.7 683.3 72.3 700 73C716.7 73.7 733.3 73.3 750 74.7C766.7 76 783.3 79 800 77.8C816.7 76.7 833.3 71.3 850 70.7C866.7 70 883.3 74 891.7 76L900 78L900 0L891.7 0C883.3 0 866.7 0 850 0C833.3 0 816.7 0 800 0C783.3 0 766.7 0 750 0C733.3 0 716.7 0 700 0C683.3 0 666.7 0 650 0C633.3 0 616.7 0 600 0C583.3 0 566.7 0 550 0C533.3 0 516.7 0 500 0C483.3 0 466.7 0 450 0C433.3 0 416.7 0 400 0C383.3 0 366.7 0 350 0C333.3 0 316.7 0 300 0C283.3 0 266.7 0 250 0C233.3 0 216.7 0 200 0C183.3 0 166.7 0 150 0C133.3 0 116.7 0 100 0C83.3 0 66.7 0 50 0C33.3 0 16.7 0 8.3 0L0 0Z" fill="#d1f6ff"></path><path d="M0 65L8.3 65.3C16.7 65.7 33.3 66.3 50 68.2C66.7 70 83.3 73 100 74C116.7 75 133.3 74 150 71.5C166.7 69 183.3 65 200 64.7C216.7 64.3 233.3 67.7 250 67.5C266.7 67.3 283.3 63.7 300 64.7C316.7 65.7 333.3 71.3 350 71.2C366.7 71 383.3 65 400 62.3C416.7 59.7 433.3 60.3 450 62C466.7 63.7 483.3 66.3 500 66.7C516.7 67 533.3 65 550 63.2C566.7 61.3 583.3 59.7 600 58.7C616.7 57.7 633.3 57.3 650 57.7C666.7 58 683.3 59 700 60.8C716.7 62.7 733.3 65.3 750 66.2C766.7 67 783.3 66 800 66.7C816.7 67.3 833.3 69.7 850 71.5C866.7 73.3 883.3 74.7 891.7 75.3L900 76L900 0L891.7 0C883.3 0 866.7 0 850 0C833.3 0 816.7 0 800 0C783.3 0 766.7 0 750 0C733.3 0 716.7 0 700 0C683.3 0 666.7 0 650 0C633.3 0 616.7 0 600 0C583.3 0 566.7 0 550 0C533.3 0 516.7 0 500 0C483.3 0 466.7 0 450 0C433.3 0 416.7 0 400 0C383.3 0 366.7 0 350 0C333.3 0 316.7 0 300 0C283.3 0 266.7 0 250 0C233.3 0 216.7 0 200 0C183.3 0 166.7 0 150 0C133.3 0 116.7 0 100 0C83.3 0 66.7 0 50 0C33.3 0 16.7 0 8.3 0L0 0Z" fill="#d3f7ff"></path><path d="M0 53L8.3 55.5C16.7 58 33.3 63 50 64.2C66.7 65.3 83.3 62.7 100 60C116.7 57.3 133.3 54.7 150 56C166.7 57.3 183.3 62.7 200 64.5C216.7 66.3 233.3 64.7 250 64.7C266.7 64.7 283.3 66.3 300 65.3C316.7 64.3 333.3 60.7 350 58.7C366.7 56.7 383.3 56.3 400 55.8C416.7 55.3 433.3 54.7 450 56.7C466.7 58.7 483.3 63.3 500 63.3C516.7 63.3 533.3 58.7 550 56.3C566.7 54 583.3 54 600 53.5C616.7 53 633.3 52 650 54.2C666.7 56.3 683.3 61.7 700 61.8C716.7 62 733.3 57 750 55.5C766.7 54 783.3 56 800 56C816.7 56 833.3 54 850 54.8C866.7 55.7 883.3 59.3 891.7 61.2L900 63L900 0L891.7 0C883.3 0 866.7 0 850 0C833.3 0 816.7 0 800 0C783.3 0 766.7 0 750 0C733.3 0 716.7 0 700 0C683.3 0 666.7 0 650 0C633.3 0 616.7 0 600 0C583.3 0 566.7 0 550 0C533.3 0 516.7 0 500 0C483.3 0 466.7 0 450 0C433.3 0 416.7 0 400 0C383.3 0 366.7 0 350 0C333.3 0 316.7 0 300 0C283.3 0 266.7 0 250 0C233.3 0 216.7 0 200 0C183.3 0 166.7 0 150 0C133.3 0 116.7 0 100 0C83.3 0 66.7 0 50 0C33.3 0 16.7 0 8.3 0L0 0Z" fill="#d5f7ff"></path><path d="M0 60L8.3 59.3C16.7 58.7 33.3 57.3 50 56.7C66.7 56 83.3 56 100 56C116.7 56 133.3 56 150 55.8C166.7 55.7 183.3 55.3 200 55.2C216.7 55 233.3 55 250 54.2C266.7 53.3 283.3 51.7 300 51C316.7 50.3 333.3 50.7 350 52.2C366.7 53.7 383.3 56.3 400 56.7C416.7 57 433.3 55 450 54.8C466.7 54.7 483.3 56.3 500 55.2C516.7 54 533.3 50 550 48.3C566.7 46.7 583.3 47.3 600 49.3C616.7 51.3 633.3 54.7 650 55.7C666.7 56.7 683.3 55.3 700 55C716.7 54.7 733.3 55.3 750 56.5C766.7 57.7 783.3 59.3 800 59.2C816.7 59 833.3 57 850 56.2C866.7 55.3 883.3 55.7 891.7 55.8L900 56L900 0L891.7 0C883.3 0 866.7 0 850 0C833.3 0 816.7 0 800 0C783.3 0 766.7 0 750 0C733.3 0 716.7 0 700 0C683.3 0 666.7 0 650 0C633.3 0 616.7 0 600 0C583.3 0 566.7 0 550 0C533.3 0 516.7 0 500 0C483.3 0 466.7 0 450 0C433.3 0 416.7 0 400 0C383.3 0 366.7 0 350 0C333.3 0 316.7 0 300 0C283.3 0 266.7 0 250 0C233.3 0 216.7 0 200 0C183.3 0 166.7 0 150 0C133.3 0 116.7 0 100 0C83.3 0 66.7 0 50 0C33.3 0 16.7 0 8.3 0L0 0Z" fill="#d7f7ff"></path><path d="M0 44L8.3 43.7C16.7 43.3 33.3 42.7 50 43.7C66.7 44.7 83.3 47.3 100 48.2C116.7 49 133.3 48 150 47.2C166.7 46.3 183.3 45.7 200 44.5C216.7 43.3 233.3 41.7 250 41C266.7 40.3 283.3 40.7 300 41.5C316.7 42.3 333.3 43.7 350 45C366.7 46.3 383.3 47.7 400 49.2C416.7 50.7 433.3 52.3 450 52C466.7 51.7 483.3 49.3 500 48.2C516.7 47 533.3 47 550 46.7C566.7 46.3 583.3 45.7 600 46.3C616.7 47 633.3 49 650 49.3C666.7 49.7 683.3 48.3 700 48.8C716.7 49.3 733.3 51.7 750 51.5C766.7 51.3 783.3 48.7 800 47.7C816.7 46.7 833.3 47.3 850 47.7C866.7 48 883.3 48 891.7 48L900 48L900 0L891.7 0C883.3 0 866.7 0 850 0C833.3 0 816.7 0 800 0C783.3 0 766.7 0 750 0C733.3 0 716.7 0 700 0C683.3 0 666.7 0 650 0C633.3 0 616.7 0 600 0C583.3 0 566.7 0 550 0C533.3 0 516.7 0 500 0C483.3 0 466.7 0 450 0C433.3 0 416.7 0 400 0C383.3 0 366.7 0 350 0C333.3 0 316.7 0 300 0C283.3 0 266.7 0 250 0C233.3 0 216.7 0 200 0C183.3 0 166.7 0 150 0C133.3 0 116.7 0 100 0C83.3 0 66.7 0 50 0C33.3 0 16.7 0 8.3 0L0 0Z" fill="#d9f8ff"></path><path d="M0 46L8.3 44.5C16.7 43 33.3 40 50 38.7C66.7 37.3 83.3 37.7 100 38.2C116.7 38.7 133.3 39.3 150 40.3C166.7 41.3 183.3 42.7 200 42.2C216.7 41.7 233.3 39.3 250 39.2C266.7 39 283.3 41 300 41.3C316.7 41.7 333.3 40.3 350 40.2C366.7 40 383.3 41 400 40.3C416.7 39.7 433.3 37.3 450 38C466.7 38.7 483.3 42.3 500 42.8C516.7 43.3 533.3 40.7 550 39.3C566.7 38 583.3 38 600 38.3C616.7 38.7 633.3 39.3 650 39.2C666.7 39 683.3 38 700 37.2C716.7 36.3 733.3 35.7 750 36.2C766.7 36.7 783.3 38.3 800 39.2C816.7 40 833.3 40 850 40.5C866.7 41 883.3 42 891.7 42.5L900 43L900 0L891.7 0C883.3 0 866.7 0 850 0C833.3 0 816.7 0 800 0C783.3 0 766.7 0 750 0C733.3 0 716.7 0 700 0C683.3 0 666.7 0 650 0C633.3 0 616.7 0 600 0C583.3 0 566.7 0 550 0C533.3 0 516.7 0 500 0C483.3 0 466.7 0 450 0C433.3 0 416.7 0 400 0C383.3 0 366.7 0 350 0C333.3 0 316.7 0 300 0C283.3 0 266.7 0 250 0C233.3 0 216.7 0 200 0C183.3 0 166.7 0 150 0C133.3 0 116.7 0 100 0C83.3 0 66.7 0 50 0C33.3 0 16.7 0 8.3 0L0 0Z" fill="#dbf8ff"></path><path d="M0 31L8.3 32.2C16.7 33.3 33.3 35.7 50 36.8C66.7 38 83.3 38 100 36.5C116.7 35 133.3 32 150 32.2C166.7 32.3 183.3 35.7 200 37.3C216.7 39 233.3 39 250 37.3C266.7 35.7 283.3 32.3 300 32C316.7 31.7 333.3 34.3 350 34.3C366.7 34.3 383.3 31.7 400 31.2C416.7 30.7 433.3 32.3 450 32.3C466.7 32.3 483.3 30.7 500 30.8C516.7 31 533.3 33 550 33.2C566.7 33.3 583.3 31.7 600 31C616.7 30.3 633.3 30.7 650 32C666.7 33.3 683.3 35.7 700 36.8C716.7 38 733.3 38 750 37.8C766.7 37.7 783.3 37.3 800 35.8C816.7 34.3 833.3 31.7 850 31.7C866.7 31.7 883.3 34.3 891.7 35.7L900 37L900 0L891.7 0C883.3 0 866.7 0 850 0C833.3 0 816.7 0 800 0C783.3 0 766.7 0 750 0C733.3 0 716.7 0 700 0C683.3 0 666.7 0 650 0C633.3 0 616.7 0 600 0C583.3 0 566.7 0 550 0C533.3 0 516.7 0 500 0C483.3 0 466.7 0 450 0C433.3 0 416.7 0 400 0C383.3 0 366.7 0 350 0C333.3 0 316.7 0 300 0C283.3 0 266.7 0 250 0C233.3 0 216.7 0 200 0C183.3 0 166.7 0 150 0C133.3 0 116.7 0 100 0C83.3 0 66.7 0 50 0C33.3 0 16.7 0 8.3 0L0 0Z" fill="#ddf9ff"></path><path d="M0 28L8.3 27.7C16.7 27.3 33.3 26.7 50 26.8C66.7 27 83.3 28 100 28.5C116.7 29 133.3 29 150 29.3C166.7 29.7 183.3 30.3 200 30.2C216.7 30 233.3 29 250 28C266.7 27 283.3 26 300 26.2C316.7 26.3 333.3 27.7 350 27.2C366.7 26.7 383.3 24.3 400 23.3C416.7 22.3 433.3 22.7 450 23.2C466.7 23.7 483.3 24.3 500 25.3C516.7 26.3 533.3 27.7 550 28.3C566.7 29 583.3 29 600 28C616.7 27 633.3 25 650 25.3C666.7 25.7 683.3 28.3 700 29.5C716.7 30.7 733.3 30.3 750 29.2C766.7 28 783.3 26 800 25.8C816.7 25.7 833.3 27.3 850 28.3C866.7 29.3 883.3 29.7 891.7 29.8L900 30L900 0L891.7 0C883.3 0 866.7 0 850 0C833.3 0 816.7 0 800 0C783.3 0 766.7 0 750 0C733.3 0 716.7 0 700 0C683.3 0 666.7 0 650 0C633.3 0 616.7 0 600 0C583.3 0 566.7 0 550 0C533.3 0 516.7 0 500 0C483.3 0 466.7 0 450 0C433.3 0 416.7 0 400 0C383.3 0 366.7 0 350 0C333.3 0 316.7 0 300 0C283.3 0 266.7 0 250 0C233.3 0 216.7 0 200 0C183.3 0 166.7 0 150 0C133.3 0 116.7 0 100 0C83.3 0 66.7 0 50 0C33.3 0 16.7 0 8.3 0L0 0Z" fill="#dff9ff"></path><path d="M0 18L8.3 18.7C16.7 19.3 33.3 20.7 50 20.7C66.7 20.7 83.3 19.3 100 18.8C116.7 18.3 133.3 18.7 150 19.2C166.7 19.7 183.3 20.3 200 21C216.7 21.7 233.3 22.3 250 22.3C266.7 22.3 283.3 21.7 300 21.3C316.7 21 333.3 21 350 20.7C366.7 20.3 383.3 19.7 400 19C416.7 18.3 433.3 17.7 450 18C466.7 18.3 483.3 19.7 500 19.7C516.7 19.7 533.3 18.3 550 18.5C566.7 18.7 583.3 20.3 600 20.8C616.7 21.3 633.3 20.7 650 20.8C666.7 21 683.3 22 700 22.5C716.7 23 733.3 23 750 22.2C766.7 21.3 783.3 19.7 800 19.7C816.7 19.7 833.3 21.3 850 22.5C866.7 23.7 883.3 24.3 891.7 24.7L900 25L900 0L891.7 0C883.3 0 866.7 0 850 0C833.3 0 816.7 0 800 0C783.3 0 766.7 0 750 0C733.3 0 716.7 0 700 0C683.3 0 666.7 0 650 0C633.3 0 616.7 0 600 0C583.3 0 566.7 0 550 0C533.3 0 516.7 0 500 0C483.3 0 466.7 0 450 0C433.3 0 416.7 0 400 0C383.3 0 366.7 0 350 0C333.3 0 316.7 0 300 0C283.3 0 266.7 0 250 0C233.3 0 216.7 0 200 0C183.3 0 166.7 0 150 0C133.3 0 116.7 0 100 0C83.3 0 66.7 0 50 0C33.3 0 16.7 0 8.3 0L0 0Z" fill="#e1f9ff"></path><path d="M0 18L8.3 17.7C16.7 17.3 33.3 16.7 50 15.7C66.7 14.7 83.3 13.3 100 13C116.7 12.7 133.3 13.3 150 13.7C166.7 14 183.3 14 200 14.3C216.7 14.7 233.3 15.3 250 15.2C266.7 15 283.3 14 300 14.2C316.7 14.3 333.3 15.7 350 16C366.7 16.3 383.3 15.7 400 15.5C416.7 15.3 433.3 15.7 450 15.2C466.7 14.7 483.3 13.3 500 13.2C516.7 13 533.3 14 550 14C566.7 14 583.3 13 600 12.8C616.7 12.7 633.3 13.3 650 14C666.7 14.7 683.3 15.3 700 15.5C716.7 15.7 733.3 15.3 750 15.5C766.7 15.7 783.3 16.3 800 16C816.7 15.7 833.3 14.3 850 13.3C866.7 12.3 883.3 11.7 891.7 11.3L900 11L900 0L891.7 0C883.3 0 866.7 0 850 0C833.3 0 816.7 0 800 0C783.3 0 766.7 0 750 0C733.3 0 716.7 0 700 0C683.3 0 666.7 0 650 0C633.3 0 616.7 0 600 0C583.3 0 566.7 0 550 0C533.3 0 516.7 0 500 0C483.3 0 466.7 0 450 0C433.3 0 416.7 0 400 0C383.3 0 366.7 0 350 0C333.3 0 316.7 0 300 0C283.3 0 266.7 0 250 0C233.3 0 216.7 0 200 0C183.3 0 166.7 0 150 0C133.3 0 116.7 0 100 0C83.3 0 66.7 0 50 0C33.3 0 16.7 0 8.3 0L0 0Z" fill="#e3faff"></path><path d="M0 9L8.3 9.2C16.7 9.3 33.3 9.7 50 10C66.7 10.3 83.3 10.7 100 10.5C116.7 10.3 133.3 9.7 150 9C166.7 8.3 183.3 7.7 200 7.5C216.7 7.3 233.3 7.7 250 7.8C266.7 8 283.3 8 300 8.2C316.7 8.3 333.3 8.7 350 9C366.7 9.3 383.3 9.7 400 9.8C416.7 10 433.3 10 450 9.8C466.7 9.7 483.3 9.3 500 9.3C516.7 9.3 533.3 9.7 550 9.3C566.7 9 583.3 8 600 7.5C616.7 7 633.3 7 650 7.2C666.7 7.3 683.3 7.7 700 7.8C716.7 8 733.3 8 750 8C766.7 8 783.3 8 800 8.2C816.7 8.3 833.3 8.7 850 8.5C866.7 8.3 883.3 7.7 891.7 7.3L900 7L900 0L891.7 0C883.3 0 866.7 0 850 0C833.3 0 816.7 0 800 0C783.3 0 766.7 0 750 0C733.3 0 716.7 0 700 0C683.3 0 666.7 0 650 0C633.3 0 616.7 0 600 0C583.3 0 566.7 0 550 0C533.3 0 516.7 0 500 0C483.3 0 466.7 0 450 0C433.3 0 416.7 0 400 0C383.3 0 366.7 0 350 0C333.3 0 316.7 0 300 0C283.3 0 266.7 0 250 0C233.3 0 216.7 0 200 0C183.3 0 166.7 0 150 0C133.3 0 116.7 0 100 0C83.3 0 66.7 0 50 0C33.3 0 16.7 0 8.3 0L0 0Z" fill="#e5faff"></path></svg>